<svg width="220" height="185" viewBox="0 0 220 185" fill="none" xmlns="http://www.w3.org/2000/svg">
<path d="M214.066 173.779C209.573 179.551 202.413 182.869 193.229 183.87C184.043 184.871 172.875 183.549 160.45 180.081C135.602 173.145 105.828 157.658 77.0354 135.248C48.2431 112.838 25.9208 87.7771 13.0978 65.3921C6.68564 54.1985 2.6618 43.6966 1.37757 34.5457C0.0936407 25.3968 1.55198 17.6416 6.04472 11.8694C10.5375 6.09711 17.6973 2.77961 26.8814 1.77834C36.0676 0.776848 47.2359 2.0995 59.6611 5.56757C84.509 12.503 114.283 27.9901 143.075 50.4001C171.868 72.81 194.19 97.8711 207.013 120.256C213.425 131.45 217.449 141.952 218.733 151.103C220.017 160.251 218.559 168.007 214.066 173.779Z" stroke="black"/>
</svg>
